<?xml version="1.0" encoding="utf-8"?>
<!-- Generator: Adobe Illustrator 22.0.1, SVG Export Plug-In . SVG Version: 6.00 Build 0)  -->
<svg version="1.1" id="Layer_1" xmlns="http://www.w3.org/2000/svg" xmlns:xlink="http://www.w3.org/1999/xlink" x="0px" y="0px"
	 viewBox="0 0 499.3 210.2" style="enable-background:new 0 0 499.3 210.2;" xml:space="preserve">
<style type="text/css">
	.st0{fill:none;stroke:#000000;stroke-width:3;stroke-miterlimit:10;}
</style>
<path class="st0" d="M144,50.8c1.4-16-12.3-43.4-30.9-43.4c-19.7,0-38.5,16.8-47.9,30.1c-11.8,16.7-9.3,17.2-22.1,49.6
	c-8.6,21.6-9.8,58.3-10.5,82.2c9.6,19.6,28-15.1,36.7-22.9c12-10.7,19-21,36-23.7c31.6-5,17.6,49.7,8.6,63.3
	c-3.7,5.7-12,13.5-18.2,5.1c-5.8-7.8,3.6-27,6.6-34.1c7.5-17.7,18.9-29.4,36.4-37.1c7.4-3.2,15.1-8.6,22.6-6.2
	c-13.7-1.9-16.2,13.8-15.5,24.7c0.8,5.8,12,0.5,11.6-13.9c11,10.8,5.2,22.3,20.1,8.6c12.4-11.3,11-5.5,23.5-0.8
	c12,4.5,17.1-1.7,27.4-6.1c11.4-4.9,3.4,8.3,13.3,11.9c-0.1-0.9,3.6-4.5,3.6-5.4c4.9,0.4,20.1,2.9,18.8-6.4c0,0-2.5,0-2.4,0
	c4.4,13.6,19.2-0.1,22.9-6.8c3.8-6.8,4.9-14.7,7.9-21.8c2.5-6,2.6-13,3.4-19.4c0.7,8-5.4,34,3.7,38.2c13.4,6.1,22.7-38,22.1-46.7
	c0,14.2-0.8,28.3,3,42.2c1.1,4.2,2.9,7.9,3.2,12.2c-2-15.1-43.9-24.7-56.4-29.1c9.9,3.7,23.6,0.7,33.9,0.9c15,0.3,29.5,4.9,44.6,3.7
	c14.8-1.3,61.7-28.9,41.4-35.4c-10-3.1-15.8,39.6-25.1,56.3c-8.4,15.2-50.6,48-42.6,27.6c7.6-16.5,49.8-21,72.2-35.5
	c5-3.3,11.3-9,15.2-13.9c9.4-11.6,2-17.3,0.2-7.2c-1.6,5.4-2.2,19.2,4.1,23c8.9,5.5,36.9-27.2,32.9-35.1
	c-7.2-14-12.3,11.4-12.5,16.8c-0.7,15.9,7.5,28.9,11.6,44.1"/>
</svg>
